if (_typeface_js && _typeface_js.loadFace) _typeface_js.loadFace({"glyphs":{"S":{"x_min":61.046875,"x_max":1015.984375,"ha":1082,"o":"m 429 971 l 815 971 l 1015 737 l 798 602 l 647 754 l 630 754 l 480 602 q 848 435 848 535 l 982 284 l 714 0 l 362 16 l 61 267 l 61 284 l 379 419 q 513 234 379 366 q 613 352 543 234 l 111 586 l 111 653 l 429 971 "},"¦":{"x_min":289.59375,"x_max":398.109375,"ha":688,"o":"m 289 251 l 398 251 l 398 -283 l 289 -283 l 289 251 m 289 1070 l 398 1070 l 398 535 l 289 535 l 289 1070 "},"/":{"x_min":8.8125,"x_max":430,"ha":386,"o":"m 63 -33 l 8 -33 l 375 972 l 430 972 l 63 -33 "},"y":{"x_min":54.265625,"x_max":663.984375,"ha":722,"o":"m 493 695 q 663 556 568 651 l 417 278 l 482 0 l 267 0 l 246 21 l 246 267 l 54 513 l 193 652 l 354 481 q 493 695 354 505 "},"≈":{"x_min":63.75,"x_max":626,"ha":688,"o":"m 626 714 l 626 608 q 543 542 583 559 q 464 524 503 524 q 344 557 423 524 q 224 590 264 590 q 151 571 189 590 q 63 495 113 552 l 63 601 q 147 668 107 651 q 224 686 187 686 q 347 652 267 686 q 464 619 427 619 q 538 638 499 619 q 626 714 576 657 m 626 478 l 626 372 q 543 306 583 323 q 464 288 503 288 q 344 321 423 288 q 224 354 264 354 q 151 335 189 354 q 63 259 113 316 l 63 365 q 147 432 107 415 q 224 450 187 450 q 347 416 267 450 q 464 383 427 383 q 538 402 499 383 q 626 478 576 421 "},"Á":{"x_min":0,"x_max":0,"ha":1044},"g":{"x_min":67.828125,"x_max":606.328125,"ha":671,"o":"m 286 697 l 356 688 l 456 688 l 606 558 l 476 468 l 406 528 l 317 528 q 237 269 295 528 l 326 179 l 476 179 l 496 259 l 486 259 l 337 249 l 337 259 l 356 419 q 596 368 596 391 l 596 149 l 606 80 l 247 0 l 67 209 q 167 588 106 588 l 286 697 "},"²":{"x_min":0,"x_max":0,"ha":688},"–":{"x_min":37.984375,"x_max":713.484375,"ha":751,"o":"m 37 284 l 37 365 l 713 365 l 713 284 l 37 284 "},"ë":{"x_min":0,"x_max":0,"ha":617},"Î":{"x_min":0,"x_max":0,"ha":446},"e":{"x_min":67.828125,"x_max":591.40625,"ha":650,"o":"m 476 700 l 476 500 l 467 507 l 375 507 l 283 516 l 283 446 l 322 438 l 476 438 l 476 423 l 467 330 l 283 354 l 314 215 l 514 284 l 514 277 l 591 130 l 168 0 l 67 269 l 90 638 l 476 700 "},"Ã":{"x_min":0,"x_max":0,"ha":1044},"J":{"x_min":74.609375,"x_max":1045.140625,"ha":1110,"o":"m 1013 970 l 1029 954 l 1029 891 l 1045 652 l 1029 652 l 695 668 l 695 652 l 727 31 l 742 15 l 265 15 l 153 0 l 74 270 l 424 270 l 472 699 l 153 699 l 170 779 l 170 954 l 742 954 l 1013 970 "},"»":{"x_min":68.5,"x_max":522.234375,"ha":640,"o":"m 78 119 l 68 119 l 68 144 l 207 324 l 68 505 l 68 530 l 78 530 l 309 324 l 78 119 m 290 119 l 280 119 l 280 144 l 419 324 l 280 505 l 280 530 l 290 530 l 522 324 l 290 119 "},"∆":{"x_min":4.0625,"x_max":727.734375,"ha":733,"o":"m 348 810 l 73 83 l 616 83 l 348 810 m 370 972 l 727 0 l 4 0 l 370 972 "},"©":{"x_min":67.828125,"x_max":1067.515625,"ha":1135,"o":"m 569 987 q 759 949 668 987 q 921 840 851 910 q 1029 678 990 771 q 1067 486 1067 585 q 1029 295 1067 387 q 918 132 990 204 q 756 24 847 61 q 564 -12 666 -12 q 376 25 465 -12 q 215 134 286 63 q 105 295 143 204 q 67 486 67 385 q 105 678 67 587 q 213 840 143 770 q 375 949 282 910 q 569 987 467 987 m 242 811 q 143 662 177 746 q 108 486 108 579 q 143 311 108 394 q 243 162 177 228 q 392 63 309 97 q 565 28 474 28 q 741 62 658 28 q 890 161 824 96 q 991 311 956 227 q 1026 486 1026 395 q 991 662 1026 577 q 893 811 956 748 q 744 911 828 876 q 569 946 659 946 q 391 911 476 946 q 242 811 306 876 m 586 151 q 407 197 490 151 q 281 322 324 243 q 238 487 238 402 q 282 653 238 573 q 409 778 326 733 q 581 823 492 823 q 632 818 607 823 q 684 805 657 814 q 690 804 687 804 q 708 824 703 804 l 736 824 l 785 690 l 755 690 q 666 774 720 754 q 567 792 617 792 l 556 792 q 443 744 498 786 q 361 623 389 701 q 339 499 339 562 q 340 465 339 482 q 387 313 347 383 q 489 210 427 243 q 601 181 537 183 q 733 219 685 181 q 780 305 780 257 l 816 305 l 816 237 q 751 178 816 206 q 586 151 685 151 "},"˘":{"x_min":148.53125,"x_max":544.609375,"ha":695,"o":"m 148 914 l 183 914 q 233 842 194 865 q 347 819 273 819 q 459 842 421 819 q 510 914 498 864 l 544 914 q 480 778 531 824 q 347 731 430 731 q 213 778 264 731 q 148 914 162 825 "},"≥":{"x_min":59,"x_max":628.71875,"ha":688,"o":"m 59 841 l 628 513 l 628 457 l 59 130 l 59 244 l 482 484 l 59 728 l 59 841 m 59 1 l 59 96 l 628 96 l 628 95 l 628 1 l 59 1 "},"ò":{"x_min":0,"x_max":0,"ha":685},"^":{"x_min":0,"x_max":0,"ha":688},"«":{"x_min":118.015625,"x_max":571.734375,"ha":640,"o":"m 118 324 l 349 530 l 359 530 l 359 505 l 220 324 l 359 144 l 359 119 l 349 119 l 118 324 m 330 324 l 562 530 l 571 530 l 571 505 l 432 324 l 571 144 l 571 119 l 562 119 l 330 324 "},"D":{"x_min":74.609375,"x_max":816.578125,"ha":892,"o":"m 558 968 q 785 731 785 773 l 816 299 l 548 20 l 94 0 l 74 937 l 84 937 l 558 968 m 352 680 l 332 309 q 590 442 368 309 q 486 649 548 649 l 362 680 l 352 680 "},"∙":{"x_min":87.484375,"x_max":257.046875,"ha":345,"o":"m 98 501 l 153 558 q 173 568 164 568 q 194 557 182 568 l 248 499 q 257 479 257 488 q 247 458 257 469 l 193 398 q 173 385 179 385 q 153 394 162 385 l 94 463 q 87 480 87 472 q 98 501 87 491 "},"ÿ":{"x_min":0,"x_max":0,"ha":589},"í":{"x_min":0,"x_max":0,"ha":349},"ˆ":{"x_min":149.890625,"x_max":544.609375,"ha":695,"o":"m 149 731 l 307 972 l 387 972 l 544 731 l 505 731 l 347 878 l 189 731 l 149 731 "},"w":{"x_min":67.828125,"x_max":805.734375,"ha":884,"o":"m 250 695 l 341 302 l 349 302 q 454 505 440 505 l 517 372 l 531 372 l 644 681 l 805 625 l 602 27 l 496 21 l 440 210 l 426 210 l 327 0 l 215 0 q 138 309 202 0 l 67 660 l 250 695 "},"$":{"x_min":76.640625,"x_max":665.34375,"ha":688,"o":"m 391 1052 l 391 983 q 486 959 437 978 q 499 955 493 955 q 527 986 516 955 l 561 986 l 631 794 l 598 794 q 484 916 557 885 q 391 942 434 936 l 391 576 q 610 452 554 513 q 665 273 665 391 q 584 69 665 139 q 391 -11 503 0 l 391 -173 l 341 -173 l 341 -12 q 161 12 214 -10 q 148 16 154 16 q 120 -13 131 16 l 86 -13 l 86 210 l 120 210 q 223 57 153 86 q 341 28 293 28 l 341 459 q 139 562 196 504 q 76 731 76 624 q 161 915 76 844 q 341 984 232 975 l 341 1052 l 391 1052 m 391 444 l 391 30 q 534 95 476 42 q 593 244 593 149 q 546 368 593 322 q 391 444 504 408 m 341 592 l 341 944 q 206 895 261 941 q 148 772 148 846 q 185 668 148 706 q 341 592 221 632 "},"∫":{"x_min":-48.828125,"x_max":491.71875,"ha":451,"o":"m -8 -190 q -48 -170 -48 -190 l -48 -63 l -24 -63 q -1 -106 -23 -92 q 42 -121 21 -121 l 42 -121 q 120 -11 98 -121 q 147 202 142 98 l 195 700 l 200 742 q 292 1033 219 904 q 451 1163 365 1163 q 491 1144 491 1163 l 491 1036 l 467 1036 q 443 1080 466 1065 q 400 1094 420 1094 q 322 989 352 1094 q 288 742 291 883 l 239 222 q 150 -62 225 65 q -8 -190 75 -190 "},"\\":{"x_min":0,"x_max":0,"ha":386},"Ì":{"x_min":0,"x_max":0,"ha":446},"µ":{"x_min":0,"x_max":0,"ha":800},"Ç":{"x_min":0,"x_max":0,"ha":949},"’":{"x_min":63.75,"x_max":338.4375,"ha":406,"o":"m 118 1043 l 338 1043 q 191 731 217 731 l 63 731 q 118 1043 63 1043 "},"-":{"x_min":78.671875,"x_max":375.734375,"ha":454,"o":"m 105 277 q 78 296 78 277 l 78 352 q 106 372 78 372 l 347 372 q 375 352 375 372 l 375 296 q 348 277 375 277 l 105 277 "},"Q":{"x_min":67.828125,"x_max":1057.34375,"ha":1133,"o":"m 410 969 l 771 969 l 1018 704 l 942 228 q 1057 132 1021 202 q 828 0 895 0 l 714 113 l 429 0 q 67 342 377 0 l 67 361 l 124 779 l 410 969 m 448 532 l 467 380 l 638 513 l 733 475 l 733 513 l 600 666 l 581 666 q 448 532 448 586 "},"M":{"x_min":67.828125,"x_max":1159.078125,"ha":1219,"o":"m 401 969 l 598 969 q 674 849 621 969 l 689 849 q 826 969 782 969 q 992 803 992 969 l 1159 136 l 841 0 l 841 14 l 886 288 l 750 515 q 598 333 750 486 l 507 515 l 492 515 l 416 14 l 280 0 l 67 0 l 401 969 "},"C":{"x_min":67.828125,"x_max":743.328125,"ha":813,"o":"m 390 969 l 714 822 l 714 734 l 743 587 l 714 558 l 684 558 l 390 646 l 332 558 q 449 322 368 338 l 714 411 l 743 411 l 743 176 q 361 0 743 117 q 96 381 96 243 l 67 704 l 390 969 "},"!":{"x_min":67.828125,"x_max":494.421875,"ha":564,"o":"m 67 984 l 117 967 l 494 935 l 396 311 l 149 311 l 67 984 m 166 246 l 379 246 l 379 32 l 362 16 l 362 0 l 346 16 l 100 16 l 166 246 "},"ç":{"x_min":0,"x_max":0,"ha":614},"È":{"x_min":0,"x_max":0,"ha":781},"ﬁ":{"x_min":0,"x_max":0,"ha":728},"{":{"x_min":162.78125,"x_max":599.546875,"ha":688,"o":"m 162 473 q 314 521 279 476 q 348 611 348 566 l 348 929 q 400 1025 348 979 q 526 1070 453 1070 l 599 1070 l 599 1037 l 538 1037 q 465 1014 497 1037 q 434 952 434 991 l 434 613 q 393 505 434 556 q 296 453 352 454 l 296 452 q 393 400 352 451 q 434 293 434 349 l 434 -45 q 465 -107 434 -84 q 538 -130 497 -130 l 599 -130 l 599 -164 l 526 -164 q 401 -118 453 -164 q 348 -22 349 -72 l 348 295 q 314 384 348 339 q 162 432 279 429 l 162 473 "},"X":{"x_min":67.828125,"x_max":1230.96875,"ha":1301,"o":"m 783 971 l 1090 735 l 1090 722 l 879 543 l 1230 281 l 924 0 q 649 293 822 120 l 374 44 l 368 44 l 67 274 l 419 556 l 419 562 q 170 767 406 562 l 368 958 l 611 760 l 783 971 "},"ô":{"x_min":0,"x_max":0,"ha":685},"¼":{"x_min":0,"x_max":0,"ha":1158},"#":{"x_min":79.359375,"x_max":826.75,"ha":906,"o":"m 404 582 l 346 385 l 510 385 l 569 582 l 404 582 m 456 972 l 519 972 l 423 649 l 588 649 l 684 972 l 746 972 l 651 649 l 826 649 l 807 583 l 631 583 l 575 386 l 764 386 l 744 320 l 554 320 l 459 0 l 396 0 l 491 320 l 328 320 l 231 0 l 169 0 l 264 320 l 79 320 l 99 386 l 283 386 l 341 583 l 141 583 l 161 649 l 361 649 l 456 972 "},"Ê":{"x_min":0,"x_max":0,"ha":781},")":{"x_min":39.34375,"x_max":343.1875,"ha":514,"o":"m 93 -250 l 39 -250 q 195 46 155 -86 q 233 400 233 176 l 233 415 q 195 769 233 638 q 39 1066 155 902 l 93 1066 q 275 767 209 938 q 343 407 341 595 q 275 48 341 219 q 93 -250 209 -122 "},"Å":{"x_min":0,"x_max":0,"ha":1044},"ø":{"x_min":0,"x_max":0,"ha":685},"â":{"x_min":0,"x_max":0,"ha":625},"}":{"x_min":88.171875,"x_max":524.9375,"ha":688,"o":"m 524 432 q 373 384 408 429 q 339 295 339 339 l 339 -22 q 286 -118 338 -72 q 161 -164 234 -164 l 88 -164 l 88 -130 l 149 -130 q 221 -107 190 -130 q 253 -45 252 -84 l 252 293 q 294 400 252 349 q 392 452 335 451 l 392 453 q 294 505 335 454 q 253 613 253 556 l 253 952 q 221 1014 252 991 q 149 1037 190 1037 l 88 1037 l 88 1070 l 161 1070 q 286 1025 234 1070 q 339 929 339 979 l 339 611 q 373 521 339 566 q 524 473 408 476 l 524 432 "},"Ä":{"x_min":0,"x_max":0,"ha":1044},"¸":{"x_min":244.15625,"x_max":520.875,"ha":695,"o":"m 244 -196 q 347 -231 301 -231 q 411 -217 392 -231 q 430 -172 430 -202 q 397 -128 430 -141 q 328 -118 370 -118 q 305 -119 317 -118 l 337 0 l 380 0 l 355 -70 q 397 -67 377 -67 q 488 -94 455 -67 q 520 -171 520 -122 q 481 -253 520 -223 q 372 -283 441 -283 q 244 -261 298 -283 l 244 -196 "},"a":{"x_min":67.828125,"x_max":830.140625,"ha":899,"o":"m 408 693 l 534 682 l 556 682 q 830 0 556 640 l 568 0 l 568 33 q 499 125 568 125 l 352 159 l 295 56 l 67 147 q 408 693 378 681 m 398 307 l 420 307 l 534 295 l 489 466 l 465 466 q 398 307 439 466 "},"—":{"x_min":0,"x_max":1389,"ha":1389,"o":"m 0 284 l 0 365 l 1389 365 l 1389 284 l 0 284 "},"=":{"x_min":59,"x_max":628.71875,"ha":688,"o":"m 59 427 l 628 427 l 628 333 l 59 333 l 59 427 m 59 639 l 628 639 l 628 544 l 59 544 l 59 639 "},"N":{"x_min":67.828125,"x_max":906.109375,"ha":983,"o":"m 111 970 l 321 970 q 630 463 499 714 l 641 463 l 641 474 l 630 794 l 630 815 l 619 871 l 773 937 l 773 926 l 906 231 l 630 22 l 619 22 q 464 396 526 396 l 310 562 l 310 0 l 67 0 l 111 970 "},"˚":{"x_min":227.203125,"x_max":467.96875,"ha":695,"o":"m 278 852 q 298 804 278 824 q 346 784 318 784 q 394 804 375 784 q 414 852 414 824 q 394 899 414 879 q 346 919 374 919 q 298 899 318 919 q 278 852 278 879 m 227 852 q 261 937 227 903 q 346 972 296 972 q 433 937 398 972 q 467 852 467 902 q 433 766 467 801 q 346 731 398 731 q 261 766 296 731 q 227 852 227 801 "},"ú":{"x_min":0,"x_max":0,"ha":718},"⁄":{"x_min":-231.953125,"x_max":462.546875,"ha":232,"o":"m -231 -19 l 405 971 l 462 971 l -173 -19 l -231 -19 "},"2":{"x_min":63.75,"x_max":902.03125,"ha":977,"o":"m 335 969 q 716 881 716 914 q 836 663 836 693 q 346 163 349 195 l 346 152 l 880 337 l 902 0 q 150 21 150 8 l 107 141 q 401 511 107 280 l 510 631 l 423 707 l 412 707 l 172 555 l 63 674 l 335 969 "},"ü":{"x_min":0,"x_max":0,"ha":718},"¯":{"x_min":0,"x_max":0,"ha":454},"Z":{"x_min":67.828125,"x_max":763.671875,"ha":833,"o":"m 197 971 l 278 954 l 763 954 l 763 857 q 585 533 763 659 q 343 290 374 290 l 343 275 l 650 275 l 731 259 l 634 0 l 553 16 l 67 16 l 67 64 q 197 436 67 347 l 326 647 l 343 695 l 181 695 l 100 712 l 197 971 "},"u":{"x_min":67.828125,"x_max":714.171875,"ha":783,"o":"m 349 695 l 366 679 l 349 563 l 349 281 l 415 265 l 465 331 l 465 679 l 515 679 l 714 662 q 614 49 663 49 l 382 0 q 67 165 67 132 l 67 314 l 84 679 l 316 679 l 333 695 l 349 695 "},"":{"x_min":0,"x_max":0,"ha":733},"˜":{"x_min":158.703125,"x_max":548,"ha":695,"o":"m 548 937 q 501 832 534 867 q 415 798 468 798 l 413 798 q 336 813 379 798 q 259 830 291 830 q 218 816 232 830 q 195 767 203 802 l 158 767 q 204 875 171 839 q 292 910 238 910 q 368 894 323 910 q 444 878 412 878 l 447 878 q 486 892 472 878 q 511 937 501 906 l 548 937 "},"Ó":{"x_min":0,"x_max":0,"ha":1095},"k":{"x_min":67.828125,"x_max":624.640625,"ha":696,"o":"m 269 691 l 269 518 l 423 672 l 548 547 l 326 374 l 624 143 l 624 134 l 499 28 l 490 28 l 269 221 l 259 210 l 259 28 l 240 9 l 115 9 l 106 0 l 96 0 l 86 9 l 86 18 l 77 633 l 67 681 l 77 691 l 269 691 "},"ˇ":{"x_min":149.890625,"x_max":544.609375,"ha":695,"o":"m 149 972 l 189 972 l 347 827 l 505 972 l 544 972 l 387 731 l 307 731 l 149 972 "},"Ù":{"x_min":0,"x_max":0,"ha":1018},"€":{"x_min":-29.84375,"x_max":723.65625,"ha":688,"o":"m 94 252 q 43 442 52 343 l -29 442 l -18 483 l 40 483 l 40 503 q 41 524 40 514 l -6 524 l 4 564 l 44 564 q 95 755 53 663 q 248 941 150 876 q 451 1006 347 1006 q 510 1001 480 1006 q 565 981 537 994 q 576 977 571 977 q 599 1007 590 977 l 627 1007 l 684 817 l 657 816 q 563 937 623 907 q 508 959 534 952 l 508 961 q 440 971 474 971 q 417 970 428 971 q 263 893 335 962 q 157 708 191 824 q 130 564 135 637 l 609 564 l 598 524 l 128 524 q 130 483 128 503 l 587 483 l 575 442 l 133 442 q 189 240 145 335 q 320 80 240 134 q 467 33 389 34 q 640 95 593 35 q 691 221 691 157 l 723 221 l 723 124 q 648 37 723 76 q 467 0 577 1 q 246 66 344 0 q 94 252 148 132 "},"¢":{"x_min":0,"x_max":0,"ha":773},"ß":{"x_min":0,"x_max":0,"ha":848},"é":{"x_min":0,"x_max":0,"ha":617},"s":{"x_min":67.828125,"x_max":746.71875,"ha":808,"o":"m 330 691 l 604 691 l 746 524 l 592 428 l 484 536 l 472 536 l 365 428 q 628 309 628 381 l 722 202 l 532 0 l 282 12 l 67 190 l 67 202 l 294 297 q 389 166 294 260 q 461 250 411 166 l 103 417 l 103 464 l 330 691 "},"B":{"x_min":69.171875,"x_max":735.1875,"ha":800,"o":"m 325 970 l 581 733 l 581 568 q 376 474 535 568 q 735 284 735 302 l 735 154 q 461 0 555 0 l 359 0 l 69 12 l 86 959 l 103 970 l 325 970 m 290 757 l 290 627 l 376 687 l 290 757 m 307 272 l 307 130 l 411 201 l 307 272 "},"…":{"x_min":87.484375,"x_max":1183.5,"ha":1389,"o":"m 98 113 l 153 170 q 173 179 164 179 q 194 168 182 179 l 248 110 q 257 90 257 99 q 247 69 257 80 l 193 10 q 173 -3 179 -3 q 153 6 162 -3 l 94 74 q 87 92 87 83 q 98 113 87 102 m 561 113 l 617 170 q 636 179 627 179 q 657 168 645 179 l 712 110 q 720 90 720 99 q 710 69 720 80 l 656 10 q 636 -3 642 -3 q 617 6 626 -3 l 557 74 q 550 92 550 83 q 561 113 550 102 m 1024 113 l 1080 170 q 1100 179 1090 179 q 1121 168 1108 179 l 1175 110 q 1183 90 1183 99 q 1174 69 1183 80 l 1119 10 q 1100 -3 1106 -3 q 1080 6 1089 -3 l 1020 74 q 1013 92 1013 83 q 1024 113 1013 102 "},"?":{"x_min":89.53125,"x_max":451.703125,"ha":507,"o":"m 89 902 q 253 972 176 972 q 397 926 343 972 q 451 803 451 880 q 429 708 451 756 q 345 581 407 659 q 249 454 284 505 q 214 358 214 404 q 238 229 214 315 l 206 229 q 172 373 172 323 q 251 584 172 446 q 330 794 330 722 q 298 881 330 849 q 210 913 266 913 q 89 858 153 913 l 89 902 m 151 113 l 206 170 q 226 179 217 179 q 247 168 235 179 l 301 110 q 309 90 309 99 q 300 69 309 80 l 246 10 q 226 -3 232 -3 q 206 6 215 -3 l 147 74 q 140 92 140 83 q 151 113 140 102 "},"H":{"x_min":61.046875,"x_max":1015.984375,"ha":1071,"o":"m 495 972 l 495 937 l 477 573 l 495 573 l 651 555 l 668 555 l 668 920 l 1015 920 l 894 0 l 876 17 l 668 17 l 651 34 l 634 34 l 651 52 l 651 295 q 529 155 529 251 l 529 17 l 356 0 l 252 0 l 61 885 l 495 972 "},"î":{"x_min":0,"x_max":0,"ha":349},"c":{"x_min":67.828125,"x_max":549.359375,"ha":614,"o":"m 298 691 l 528 586 l 528 523 l 549 419 l 528 398 l 507 398 l 298 460 l 256 398 q 339 230 282 241 l 528 293 l 549 293 l 549 125 q 277 0 549 84 q 88 271 88 173 l 67 502 l 298 691 "},"¶":{"x_min":63.078125,"x_max":630.0625,"ha":695,"o":"m 630 973 l 630 925 l 543 925 l 543 0 l 488 0 l 488 925 l 375 925 l 375 0 l 318 0 l 318 500 q 131 570 200 505 q 63 736 63 634 q 135 908 63 843 q 329 973 208 973 l 630 973 "},"−":{"x_min":59,"x_max":628.71875,"ha":688,"o":"m 59 438 l 59 533 l 628 533 l 628 533 l 628 438 l 59 438 "},"•":{"x_min":146.5,"x_max":548,"ha":695,"o":"m 146 486 q 205 628 146 570 q 347 687 264 687 q 489 628 430 687 q 548 486 548 569 q 488 344 548 404 q 346 285 429 285 q 204 344 263 285 q 146 486 146 403 "},"¥":{"x_min":5.421875,"x_max":864.0625,"ha":856,"o":"m 370 152 l 369 316 q 368 340 369 329 q 365 362 367 351 l 37 362 q 23 367 27 362 q 18 380 18 371 q 22 393 18 389 q 37 397 27 397 l 354 397 l 271 514 l 38 514 q 22 517 27 514 q 18 530 18 521 q 22 543 18 539 q 37 547 26 547 l 245 547 q 172 652 216 585 q 18 786 83 786 q 9 789 13 786 q 5 797 5 793 q 12 816 5 810 q 34 822 19 822 q 118 816 52 822 q 229 811 183 811 l 267 811 l 288 811 q 316 806 311 811 q 322 788 322 802 q 311 779 322 783 q 286 775 301 775 q 273 776 282 775 q 261 777 265 777 q 235 771 244 777 q 226 754 226 765 q 237 718 226 741 q 269 666 248 695 l 376 516 q 398 480 385 503 q 446 433 426 433 q 458 436 453 433 q 467 446 463 440 l 655 715 q 664 733 661 723 q 668 750 668 743 q 661 768 668 762 q 636 777 654 774 q 608 780 626 779 q 576 797 576 782 q 581 812 576 807 q 598 817 587 817 q 609 817 600 817 q 682 812 647 812 l 776 812 q 820 813 796 812 q 845 813 844 813 q 858 810 853 813 q 864 803 863 807 q 838 779 864 784 q 819 776 826 777 q 720 697 777 766 q 712 687 715 691 l 597 547 l 816 547 q 832 543 826 547 q 838 531 838 539 q 834 517 838 521 q 819 514 830 514 l 571 514 q 505 437 539 475 q 470 397 471 400 l 816 397 q 833 393 828 397 q 838 381 838 389 q 834 367 838 372 q 819 362 829 362 l 459 362 q 459 342 459 355 q 458 322 458 328 l 459 176 q 463 74 459 99 q 477 44 467 50 q 550 31 497 33 q 602 10 602 30 q 596 -2 602 2 q 579 -8 589 -8 q 555 -5 577 -8 q 511 -2 532 -2 q 369 -5 449 -2 q 273 -8 290 -8 q 246 -5 252 -8 q 240 5 240 -2 q 245 17 240 13 q 270 26 250 22 q 287 29 276 27 q 349 51 337 40 q 366 83 361 60 q 370 152 370 106 "},"(":{"x_min":170.90625,"x_max":474.75,"ha":514,"o":"m 170 407 q 238 767 172 595 q 420 1066 304 938 l 474 1066 q 318 769 358 902 q 280 415 280 638 l 280 400 q 318 46 280 176 q 474 -250 358 -86 l 420 -250 q 238 48 304 -122 q 170 407 172 219 "},"U":{"x_min":67.828125,"x_max":967.140625,"ha":1036,"o":"m 459 968 l 482 945 l 459 784 l 459 392 l 552 368 l 621 461 l 621 945 l 690 945 l 967 922 q 828 69 897 69 l 505 0 q 67 230 67 184 l 67 438 l 90 945 l 413 945 l 436 968 l 459 968 "},"Ñ":{"x_min":0,"x_max":0,"ha":1054},"F":{"x_min":67.828125,"x_max":776.5625,"ha":848,"o":"m 776 970 l 776 954 l 714 708 l 391 754 l 375 739 l 375 631 l 391 631 l 622 647 l 622 631 l 607 385 l 391 431 l 391 15 l 375 15 l 67 0 l 129 940 l 776 970 "},"­":{"x_min":78.671875,"x_max":375.734375,"ha":454,"o":"m 105 277 q 78 296 78 277 l 78 352 q 106 372 78 372 l 347 372 q 375 352 375 372 l 375 296 q 348 277 375 277 l 105 277 "},":":{"x_min":63.75,"x_max":233.984375,"ha":300,"o":"m 84 169 l 233 169 l 233 3 l 72 3 l 69 166 l 81 172 l 84 169 m 78 647 l 228 647 l 228 480 l 67 480 l 63 643 l 75 649 l 78 647 "},"Û":{"x_min":0,"x_max":0,"ha":1018},"*":{"x_min":147.859375,"x_max":545.96875,"ha":695,"o":"m 337 877 q 312 965 335 925 q 287 1022 287 1010 q 303 1057 287 1044 q 345 1070 319 1070 q 387 1058 370 1070 q 404 1026 404 1046 q 379 966 404 1012 q 354 878 357 925 q 431 929 399 895 q 478 970 465 966 q 492 972 485 972 q 516 965 504 972 q 541 929 533 954 q 545 905 545 916 q 543 886 545 895 q 517 860 536 866 q 504 859 513 859 q 453 865 487 859 q 415 868 434 868 q 360 861 387 868 q 432 805 390 824 q 485 773 478 783 q 494 747 494 760 q 493 735 494 741 q 466 699 487 715 q 426 685 446 685 q 425 685 425 685 q 393 701 404 685 q 378 765 385 712 q 346 849 371 810 q 315 765 320 810 q 301 704 309 714 q 268 686 288 687 l 265 686 q 226 700 246 686 q 200 735 206 714 q 197 748 197 741 q 204 770 197 760 q 261 805 213 781 q 332 860 302 824 q 278 868 304 868 q 242 864 259 868 q 189 857 205 857 q 179 858 183 857 q 151 884 159 864 q 147 904 147 893 q 151 928 147 915 q 176 964 159 952 q 199 972 187 972 q 211 970 205 972 q 261 928 225 966 q 337 877 293 895 "},"†":{"x_min":48.15625,"x_max":640.25,"ha":688,"o":"m 329 693 q 293 813 324 758 q 254 901 254 882 q 278 954 254 934 q 343 974 303 974 q 407 955 382 974 q 433 907 433 937 q 396 814 433 885 q 358 693 364 756 q 478 729 423 698 q 566 768 547 768 q 619 744 599 768 q 640 678 640 719 q 621 614 640 640 q 572 589 602 589 q 480 626 550 589 q 358 665 422 657 q 433 477 364 545 q 357 -183 361 165 l 331 -183 q 254 477 327 165 q 329 665 323 545 q 208 628 264 658 q 121 589 140 589 q 68 613 88 589 q 48 678 48 638 q 66 742 48 717 q 115 768 85 768 q 208 730 137 768 q 329 693 265 699 "},"∕":{"x_min":-231.953125,"x_max":462.546875,"ha":232,"o":"m -231 -19 l 405 971 l 462 971 l -173 -19 l -231 -19 "},"°":{"x_min":40.6875,"x_max":417.78125,"ha":457,"o":"m 229 930 q 129 889 171 930 q 88 788 88 847 q 129 689 88 729 q 229 648 170 648 q 329 689 288 648 q 370 788 370 729 q 329 889 370 847 q 229 930 288 930 m 229 978 q 362 922 307 978 q 417 789 417 867 q 362 656 417 712 q 228 600 306 600 q 94 655 149 600 q 40 789 40 710 q 95 923 40 868 q 229 978 151 978 "},"V":{"x_min":61.046875,"x_max":929.84375,"ha":1009,"o":"m 295 969 l 395 969 l 395 935 l 461 400 q 629 969 562 400 l 929 969 q 495 0 740 0 l 461 0 q 161 601 161 200 l 61 935 l 295 969 "},"å":{"x_min":0,"x_max":0,"ha":625}," ":{"x_min":0,"x_max":0,"ha":345},"0":{"x_min":65.78125,"x_max":797.59375,"ha":865,"o":"m 210 965 l 218 965 q 653 868 653 901 q 789 458 789 567 l 797 273 l 797 88 q 572 0 603 0 l 242 0 l 65 120 q 210 965 65 532 m 322 779 l 282 265 l 443 225 l 604 289 q 516 763 540 718 l 476 788 l 322 779 "},"”":{"x_min":63.75,"x_max":643.640625,"ha":722,"o":"m 118 1034 l 338 1034 q 191 722 217 722 l 63 722 q 118 1034 63 1034 m 423 1034 l 643 1034 q 497 722 522 722 l 368 722 q 423 1034 368 1034 "},"¾":{"x_min":0,"x_max":0,"ha":1158},"@":{"x_min":67.828125,"x_max":1276.421875,"ha":1369,"o":"m 659 421 q 556 367 602 415 q 510 232 510 320 q 554 101 510 160 q 678 42 597 42 q 763 155 744 45 l 763 478 q 659 421 727 435 m 922 19 q 854 31 879 20 q 812 68 828 43 q 756 24 792 43 q 666 6 720 6 q 492 74 569 6 q 416 232 416 142 q 452 345 417 291 q 542 423 487 399 q 659 457 596 447 q 734 485 705 467 q 763 536 763 503 q 735 621 762 583 q 648 659 709 659 q 565 619 599 659 q 531 534 532 579 l 501 534 l 501 642 q 550 669 501 655 q 670 682 599 682 q 802 639 744 681 q 859 532 859 596 l 859 132 q 923 53 859 53 q 1104 183 1048 77 q 1159 442 1159 289 q 1002 809 1146 670 q 676 936 868 936 q 410 843 537 936 q 227 602 283 750 q 182 357 182 481 q 270 10 182 145 q 477 -186 358 -124 q 693 -248 596 -248 q 1083 -107 878 -248 l 1083 -158 q 695 -283 904 -283 q 383 -200 533 -283 q 150 31 233 -117 q 67 344 67 180 q 151 659 67 508 q 386 891 236 810 q 695 972 536 972 q 1108 816 941 972 q 1276 432 1276 660 q 1157 134 1276 249 q 922 19 1038 21 "},"ö":{"x_min":0,"x_max":0,"ha":685},"i":{"x_min":67.828125,"x_max":331.65625,"ha":406,"o":"m 162 695 l 215 685 l 310 685 l 320 674 l 331 674 l 320 600 l 310 0 l 67 0 l 162 695 "},"≤":{"x_min":59,"x_max":628.71875,"ha":688,"o":"m 628 728 l 204 484 l 628 244 l 628 130 l 59 457 l 59 513 l 628 841 l 628 728 m 59 0 l 59 95 l 628 95 l 628 94 l 628 0 l 59 0 "},"Õ":{"x_min":0,"x_max":0,"ha":1095},"№":{"x_min":0,"x_max":0,"ha":1540},"þ":{"x_min":0,"x_max":0,"ha":685},"]":{"x_min":0,"x_max":0,"ha":514},"m":{"x_min":67.828125,"x_max":850.484375,"ha":917,"o":"m 307 695 l 448 695 q 502 609 465 695 l 513 609 q 611 695 580 695 q 731 575 731 695 l 850 97 l 621 0 l 621 10 l 655 206 l 556 369 q 448 239 556 348 l 383 369 l 372 369 l 318 10 l 219 0 l 67 0 l 307 695 "},"8":{"x_min":79.359375,"x_max":826.078125,"ha":891,"o":"m 233 973 q 680 884 680 904 l 769 673 q 655 584 655 598 q 817 511 817 527 l 826 97 l 826 89 l 615 0 l 290 0 q 79 113 267 0 l 103 462 l 257 568 l 257 576 l 144 673 l 233 973 m 396 787 l 347 787 l 347 697 l 444 681 l 558 722 l 558 730 l 517 795 l 396 787 m 314 397 l 306 267 l 314 267 l 468 227 q 623 300 620 287 l 598 446 q 314 397 493 446 "},"R":{"x_min":74.609375,"x_max":821.328125,"ha":894,"o":"m 179 970 l 193 970 q 701 866 601 970 l 791 821 l 791 507 l 567 402 l 821 149 q 642 0 792 100 l 627 0 l 387 373 l 373 373 l 358 74 l 74 74 l 179 970 m 417 716 l 417 552 l 537 612 l 537 642 l 417 716 "},"á":{"x_min":0,"x_max":0,"ha":625},"×":{"x_min":109.1875,"x_max":578.53125,"ha":688,"o":"m 343 419 l 176 251 l 109 318 l 276 486 l 109 654 l 176 720 l 343 553 l 512 720 l 578 653 l 411 486 l 578 318 l 511 251 l 343 419 "},"o":{"x_min":61.046875,"x_max":752.15625,"ha":808,"o":"m 332 691 l 562 691 l 752 501 q 670 135 694 135 q 291 0 341 0 l 61 230 q 155 596 61 596 q 332 691 282 691 m 332 392 l 345 271 l 345 257 l 467 257 q 535 379 497 257 l 440 474 l 332 392 "},"5":{"x_min":72.5625,"x_max":814.546875,"ha":885,"o":"m 137 967 q 733 935 733 956 l 750 790 l 750 725 l 314 806 q 459 661 314 661 q 814 467 777 570 l 814 193 q 653 0 706 31 l 72 161 l 137 403 l 169 403 l 443 225 l 604 290 l 604 322 q 443 516 604 458 l 120 532 l 137 806 l 137 967 "},"õ":{"x_min":0,"x_max":0,"ha":685},"7":{"x_min":71.890625,"x_max":930.515625,"ha":995,"o":"m 71 971 q 930 746 893 773 l 536 0 l 184 42 l 184 70 l 634 647 l 100 704 l 71 971 "},"K":{"x_min":67.828125,"x_max":850.484375,"ha":914,"o":"m 351 971 l 351 728 l 567 944 l 742 769 l 432 526 l 850 202 l 850 189 l 674 40 l 661 40 l 351 310 l 337 297 l 337 40 l 310 13 l 134 13 l 122 0 l 108 0 l 94 13 l 94 27 l 81 890 l 67 958 l 81 971 l 351 971 "},",":{"x_min":77.3125,"x_max":352,"ha":416,"o":"m 132 139 l 352 139 q 205 -172 231 -172 l 77 -172 q 132 139 77 139 "},"d":{"x_min":61.046875,"x_max":594.796875,"ha":655,"o":"m 409 696 q 572 526 572 556 l 594 215 l 402 14 l 75 0 l 61 674 l 68 674 l 409 696 m 261 489 l 246 222 q 432 318 272 222 q 357 467 401 467 l 268 489 l 261 489 "},"¨":{"x_min":141.75,"x_max":535.796875,"ha":695,"o":"m 151 874 l 199 923 q 216 931 208 931 q 234 921 223 931 l 281 872 q 288 855 288 862 q 280 836 288 846 l 233 786 q 216 774 221 774 q 199 782 206 774 l 147 841 q 141 856 141 849 q 151 874 141 865 m 398 874 l 446 923 q 463 931 455 931 q 482 922 471 931 l 529 872 q 535 855 535 862 q 527 837 535 846 l 480 786 q 463 774 469 774 q 446 782 454 774 l 395 841 q 389 856 389 849 q 398 874 389 865 "},"Ô":{"x_min":0,"x_max":0,"ha":1095},"E":{"x_min":67.828125,"x_max":796.90625,"ha":869,"o":"m 636 975 l 636 696 l 625 707 l 496 707 l 367 718 l 367 621 l 421 611 l 636 611 l 636 589 l 625 460 l 367 493 l 411 299 l 689 396 l 689 385 l 796 182 l 206 0 l 67 375 l 99 889 l 636 975 "},"Y":{"x_min":54.265625,"x_max":902.71875,"ha":973,"o":"m 664 967 q 902 773 769 906 l 560 387 l 649 0 l 352 0 l 322 29 l 322 372 l 54 714 l 247 908 l 471 670 q 664 967 471 703 "},"\"":{"x_min":56.96875,"x_max":636.84375,"ha":696,"o":"m 111 1068 l 331 1068 q 185 756 210 756 l 56 756 q 111 1068 56 1068 m 417 1068 l 636 1068 q 490 756 516 756 l 362 756 q 417 1068 362 1068 "},"‹":{"x_min":118.015625,"x_max":359.453125,"ha":428,"o":"m 118 324 l 349 530 l 359 530 l 359 505 l 220 324 l 359 144 l 359 119 l 349 119 l 118 324 "},"˙":{"x_min":276.71875,"x_max":422.53125,"ha":695,"o":"m 286 874 l 333 923 q 341 929 337 927 q 351 931 346 931 q 359 929 355 931 q 368 923 364 927 l 416 871 q 421 864 419 868 q 422 855 422 860 q 420 845 421 849 q 415 836 419 841 l 366 785 q 356 776 358 777 q 351 774 353 774 q 340 776 344 774 q 333 781 335 777 l 282 841 q 278 847 279 843 q 276 856 276 851 q 278 865 276 860 q 286 874 280 869 "},"ê":{"x_min":0,"x_max":0,"ha":617},"Ï":{"x_min":0,"x_max":0,"ha":446},"„":{"x_min":63.75,"x_max":643.640625,"ha":711,"o":"m 118 159 l 338 159 q 191 -151 217 -151 l 63 -151 q 118 159 63 159 m 423 159 l 643 159 q 497 -151 522 -151 l 368 -151 q 423 159 368 159 "},"Â":{"x_min":0,"x_max":0,"ha":1044},"Í":{"x_min":0,"x_max":0,"ha":446},"´":{"x_min":214.3125,"x_max":526.984375,"ha":695,"o":"m 411 932 q 449 964 435 956 q 476 972 463 972 q 513 959 499 972 q 526 924 526 945 q 516 895 526 909 q 484 868 505 882 l 261 731 l 214 731 l 411 932 "},"ì":{"x_min":0,"x_max":0,"ha":349},"±":{"x_min":0,"x_max":0,"ha":688},"Ú":{"x_min":0,"x_max":0,"ha":1018},"|":{"x_min":289.59375,"x_max":398.109375,"ha":688,"o":"m 289 1069 l 398 1069 l 398 -283 l 289 -283 l 289 1069 "},"§":{"x_min":115.296875,"x_max":572.421875,"ha":688,"o":"m 369 217 q 435 253 407 228 q 484 366 484 297 q 484 373 484 369 l 482 373 q 480 391 482 382 q 403 477 465 432 q 318 497 363 497 q 233 466 265 497 q 201 387 201 436 q 369 217 201 303 m 316 -234 q 441 -187 392 -230 q 490 -75 490 -144 q 276 111 490 8 q 157 204 192 154 q 121 324 121 253 q 181 484 121 424 q 297 540 227 529 l 269 553 q 150 646 186 596 q 115 766 115 695 q 175 927 115 866 q 322 985 231 980 q 333 986 327 986 l 335 986 q 446 974 380 986 q 512 946 512 963 l 512 815 l 477 815 q 423 904 474 870 q 322 939 375 936 l 311 939 q 227 909 259 939 q 195 829 195 878 q 389 647 195 739 q 528 549 491 601 q 566 422 566 497 q 497 231 566 306 q 430 187 465 204 q 535 107 503 149 q 572 -18 572 55 q 503 -210 572 -134 q 316 -282 419 -280 l 316 -281 q 307 -282 311 -282 l 305 -282 q 194 -270 260 -282 q 128 -242 128 -259 l 128 -111 l 163 -111 q 217 -200 166 -166 q 316 -234 263 -231 "},"Ý":{"x_min":0,"x_max":0,"ha":836},"b":{"x_min":62.390625,"x_max":539.859375,"ha":610,"o":"m 246 695 l 429 526 l 429 407 q 282 339 396 407 q 539 204 539 217 l 539 111 q 343 0 411 0 l 270 0 l 62 9 l 74 687 l 86 695 l 246 695 m 221 543 l 221 450 l 282 492 l 221 543 m 233 196 l 233 94 l 307 145 l 233 196 "},"q":{"x_min":61.046875,"x_max":770.46875,"ha":833,"o":"m 306 695 l 565 695 l 743 504 l 688 163 q 770 95 744 145 q 607 0 654 0 l 524 82 l 320 0 q 61 245 283 0 l 61 259 l 101 559 l 306 695 m 333 381 l 347 272 l 470 368 l 538 341 l 538 368 l 442 477 l 429 477 q 333 381 333 420 "},"Ö":{"x_min":0,"x_max":0,"ha":1095},"ﬂ":{"x_min":0,"x_max":0,"ha":733},"z":{"x_min":67.828125,"x_max":566.3125,"ha":625,"o":"m 160 695 l 218 684 l 566 684 l 566 614 q 438 382 566 472 q 265 208 287 208 l 265 197 l 485 197 l 543 185 l 474 0 l 415 11 l 67 11 l 67 46 q 160 313 67 249 l 253 463 l 265 498 l 149 498 l 90 510 l 160 695 "},"™":{"x_min":0,"x_max":0,"ha":1015},"ã":{"x_min":0,"x_max":0,"ha":625},"æ":{"x_min":0,"x_max":0,"ha":986},"®":{"x_min":67.828125,"x_max":1067.515625,"ha":1135,"o":"m 509 745 l 509 491 l 511 486 q 549 431 526 448 q 587 416 569 416 l 591 416 q 633 442 612 419 q 664 508 653 465 q 673 578 673 542 q 672 596 673 587 q 653 681 670 642 q 615 732 637 720 q 572 745 593 745 l 509 745 m 667 390 l 722 311 q 824 216 790 216 l 847 216 l 847 182 l 613 182 l 613 216 l 643 216 q 663 231 663 216 q 617 308 663 250 l 566 377 q 509 406 537 377 l 509 298 q 533 216 509 216 l 569 216 l 569 182 l 355 182 l 355 216 l 384 216 q 409 298 409 216 l 409 663 q 384 745 409 745 l 355 745 l 355 792 l 596 792 q 681 764 640 792 q 744 687 722 736 q 766 583 766 637 q 744 481 766 531 q 667 390 722 432 m 569 987 q 759 949 668 987 q 921 840 851 910 q 1029 678 990 771 q 1067 486 1067 585 q 1029 295 1067 387 q 918 132 990 204 q 756 24 847 61 q 564 -12 666 -12 q 376 25 465 -12 q 215 134 286 63 q 105 295 143 204 q 67 486 67 385 q 105 678 67 587 q 213 840 143 770 q 375 949 282 910 q 569 987 467 987 m 242 811 q 143 662 177 746 q 108 486 108 579 q 143 311 108 394 q 243 162 177 228 q 392 63 309 97 q 565 28 474 28 q 741 62 658 28 q 890 161 824 96 q 991 311 956 227 q 1026 486 1026 395 q 991 662 1026 577 q 893 811 956 748 q 744 911 828 876 q 569 946 659 946 q 391 911 476 946 q 242 811 306 876 "},"É":{"x_min":0,"x_max":0,"ha":781},"~":{"x_min":63.75,"x_max":626,"ha":688,"o":"m 626 595 l 626 489 q 543 423 583 440 q 464 406 503 406 q 344 439 423 406 q 224 472 264 472 q 151 453 189 472 q 63 377 113 434 l 63 482 q 147 550 107 532 q 224 567 187 567 q 347 534 267 567 q 464 500 427 500 q 538 519 499 500 q 626 595 576 538 "},"³":{"x_min":0,"x_max":0,"ha":688},"₧":{"x_min":32.5625,"x_max":1334.0625,"ha":1375,"o":"m 277 938 l 277 489 q 282 478 279 483 q 355 374 309 408 q 434 344 394 344 q 446 345 440 344 q 533 396 493 350 q 592 516 573 441 q 607 637 607 575 q 606 669 607 653 q 572 817 601 748 q 499 915 543 887 q 423 939 461 939 q 408 938 416 939 l 277 938 m 1014 615 l 893 615 l 893 151 q 916 70 893 96 q 971 45 935 49 l 923 175 l 956 176 q 1033 58 993 88 q 1119 28 1072 28 l 1124 28 q 1226 63 1186 28 q 1266 155 1266 99 q 1091 309 1266 225 q 993 385 1022 344 q 964 483 964 425 q 1013 615 964 565 l 1014 615 m 704 617 q 672 485 699 548 q 576 365 638 408 q 447 322 514 322 q 318 365 379 322 q 277 400 295 380 l 277 193 q 346 33 277 33 l 412 33 l 412 0 l 32 0 l 32 33 l 97 33 q 167 193 167 33 l 167 779 q 97 938 167 938 l 32 938 l 32 972 l 451 972 q 574 930 514 971 q 671 810 636 888 q 706 649 705 733 l 712 649 q 859 890 859 649 l 893 890 l 893 649 l 1068 649 q 1143 663 1097 662 l 1144 663 q 1235 654 1181 663 q 1289 631 1289 644 l 1289 523 l 1260 523 q 1216 596 1258 568 q 1125 625 1174 625 q 1056 600 1082 625 q 1030 535 1030 575 q 1189 385 1030 461 q 1303 306 1272 348 q 1334 202 1334 263 q 1277 45 1334 107 q 1123 -12 1208 -11 q 1051 -5 1083 -12 q 1013 -1 1032 -1 q 989 -3 1001 -1 q 949 -6 970 -6 q 831 31 865 -6 q 792 151 798 70 l 792 151 l 792 617 l 704 617 "},"¡":{"x_min":0,"x_max":0,"ha":456},"[":{"x_min":0,"x_max":0,"ha":514},"L":{"x_min":67.828125,"x_max":702.640625,"ha":765,"o":"m 129 975 l 439 959 l 439 944 l 284 278 l 362 263 l 702 263 l 702 247 l 625 0 l 516 15 l 67 15 l 129 975 "},";":{"x_min":70.53125,"x_max":345.21875,"ha":422,"o":"m 143 638 l 293 638 l 293 472 l 131 472 l 128 635 l 140 641 l 143 638 m 125 145 l 345 145 q 198 -165 224 -165 l 70 -165 q 125 145 70 145 "}," ":{"x_min":0,"x_max":0,"ha":345},"∑":{"x_min":81.390625,"x_max":775.890625,"ha":818,"o":"m 718 371 l 183 -248 l 614 -248 q 742 -124 702 -248 l 775 -124 l 706 -282 l 81 -282 l 81 -248 q 153 -212 123 -248 l 602 317 l 153 900 q 81 938 123 938 l 81 972 l 706 972 l 775 815 l 742 815 q 614 938 702 938 l 285 938 l 718 371 "},"%":{"x_min":42.046875,"x_max":1049.890625,"ha":1092,"o":"m 304 989 q 433 956 370 989 q 531 861 496 923 q 567 732 567 800 q 532 604 567 665 q 435 509 498 543 q 304 475 373 475 q 173 509 236 475 q 76 604 111 543 q 42 732 42 665 q 77 861 42 800 q 175 956 112 923 q 304 989 238 989 m 139 722 q 177 605 148 660 q 249 520 206 550 q 326 493 288 493 q 335 494 331 493 q 413 530 378 496 q 463 622 448 564 q 472 697 472 659 q 469 741 472 719 q 431 861 461 805 q 358 945 401 916 q 280 971 319 971 l 273 971 q 196 935 231 969 q 147 844 161 902 q 137 765 137 805 q 139 722 137 744 m 201 -19 l 838 971 l 895 971 l 259 -19 l 201 -19 m 787 500 q 916 466 853 500 q 1014 372 979 433 q 1049 243 1049 310 q 1015 114 1049 175 q 918 20 981 54 q 787 -13 855 -13 q 656 20 718 -13 q 559 114 594 54 q 524 243 524 175 q 560 372 524 310 q 658 466 595 433 q 787 500 720 500 m 622 233 q 660 115 631 170 q 732 31 689 60 q 811 4 772 4 l 818 4 q 896 40 861 6 q 946 132 931 74 q 954 208 954 169 q 952 252 954 229 q 914 371 944 315 q 841 455 884 427 q 763 481 802 481 l 756 481 q 679 446 714 479 q 630 354 644 413 q 619 275 619 315 q 622 233 619 254 "},"P":{"x_min":67.828125,"x_max":708.0625,"ha":777,"o":"m 82 967 l 350 967 l 708 833 l 708 505 q 499 312 536 312 l 335 312 l 335 0 l 67 0 l 82 744 l 82 967 m 365 685 l 350 580 l 350 505 q 484 685 375 505 l 365 685 "},"∏":{"x_min":32.5625,"x_max":994.953125,"ha":1028,"o":"m 346 938 q 277 779 277 938 l 277 -89 q 346 -248 277 -248 l 412 -248 l 412 -283 l 32 -283 l 32 -248 l 97 -248 q 167 -89 167 -248 l 167 779 q 97 938 167 938 l 32 938 l 32 972 l 994 972 l 994 938 l 929 938 q 859 779 859 938 l 859 -89 q 929 -248 859 -248 l 994 -248 l 994 -282 l 615 -282 l 615 -248 l 680 -248 q 750 -89 750 -248 l 750 779 q 680 938 750 938 l 346 938 "},"À":{"x_min":0,"x_max":0,"ha":1044},"_":{"x_min":0,"x_max":694.5,"ha":695,"o":"m 0 -67 l 694 -67 l 694 -108 l 0 -108 l 0 -67 "},"ñ":{"x_min":0,"x_max":0,"ha":751},"+":{"x_min":59,"x_max":628.71875,"ha":688,"o":"m 296 438 l 59 438 l 59 533 l 296 533 l 296 784 l 297 784 l 391 784 l 391 533 l 628 533 l 628 533 l 628 438 l 391 438 l 391 187 l 296 187 l 296 438 "},"‚":{"x_min":70.53125,"x_max":345.21875,"ha":422,"o":"m 125 152 l 345 152 q 198 -158 224 -158 l 70 -158 q 125 152 70 152 "},"½":{"x_min":0,"x_max":0,"ha":1332},"Æ":{"x_min":0,"x_max":0,"ha":1436},"₣":{"x_min":32.5625,"x_max":722.984375,"ha":688,"o":"m 167 242 l 35 242 l 35 282 l 167 282 l 167 779 q 97 938 167 938 l 32 938 l 32 972 l 653 972 l 722 815 l 689 815 q 560 939 649 939 l 346 938 q 277 779 277 938 l 277 540 l 522 540 q 590 583 590 540 l 590 622 l 623 622 l 623 390 l 590 390 l 590 431 q 522 473 590 473 l 277 473 l 277 282 l 408 282 l 408 242 l 277 242 l 277 193 q 346 33 277 33 l 412 33 l 412 0 l 32 0 l 32 33 l 97 33 q 167 193 167 33 l 167 242 "},"Ë":{"x_min":0,"x_max":0,"ha":781},"'":{"x_min":63.75,"x_max":338.4375,"ha":402,"o":"m 118 1068 l 338 1068 q 191 756 217 756 l 63 756 q 118 1068 63 1068 "},"ª":{"x_min":0,"x_max":0,"ha":439},"˛":{"x_min":250.265625,"x_max":499.84375,"ha":695,"o":"m 434 0 q 359 -81 385 -42 q 332 -157 332 -120 q 350 -208 332 -189 q 400 -227 368 -227 q 447 -216 427 -227 q 480 -183 467 -206 l 499 -194 q 438 -260 475 -237 q 357 -283 401 -283 q 280 -259 309 -283 q 250 -198 250 -235 q 291 -91 250 -146 q 400 0 332 -37 l 434 0 "},"ð":{"x_min":0,"x_max":0,"ha":773},"T":{"x_min":74.609375,"x_max":978.671875,"ha":1052,"o":"m 946 968 l 962 952 l 962 887 l 978 645 l 865 645 l 623 661 l 672 0 l 316 0 l 381 694 l 171 694 l 90 678 l 74 694 l 90 775 l 90 952 l 672 952 l 946 968 "},"Þ":{"x_min":0,"x_max":0,"ha":760},"j":{"x_min":67.828125,"x_max":758.9375,"ha":828,"o":"m 736 691 l 747 679 l 747 634 l 758 464 l 747 464 l 509 476 l 509 464 l 532 22 l 543 11 l 203 11 l 124 0 l 67 192 l 317 192 l 351 498 l 124 498 l 135 555 l 135 679 l 543 679 l 736 691 "},"1":{"x_min":73.25,"x_max":617.1875,"ha":688,"o":"m 352 970 l 499 955 l 588 955 l 602 940 l 617 940 l 602 838 l 588 0 l 249 0 l 337 647 l 190 558 l 73 676 l 352 970 "},"›":{"x_min":68.5,"x_max":309.953125,"ha":428,"o":"m 78 119 l 68 119 l 68 144 l 207 324 l 68 505 l 68 530 l 78 530 l 309 324 l 78 119 "},"ı":{"x_min":12.890625,"x_max":321.484375,"ha":349,"o":"m 222 151 q 290 33 222 33 l 321 33 l 321 0 l 21 0 l 21 33 l 52 33 q 120 151 120 33 l 120 444 q 45 496 120 496 l 12 496 l 12 526 q 189 649 163 573 l 222 649 l 222 151 "},"ä":{"x_min":0,"x_max":0,"ha":625},"<":{"x_min":59,"x_max":628.71875,"ha":688,"o":"m 628 728 l 204 484 l 628 244 l 628 130 l 59 457 l 59 513 l 628 841 l 628 728 "},"£":{"x_min":51.546875,"x_max":634.8125,"ha":688,"o":"m 507 913 q 398 934 458 934 l 397 934 q 268 866 329 934 q 211 702 211 803 q 212 682 211 692 q 248 497 212 590 l 492 497 l 492 456 l 265 456 q 286 415 275 436 q 310 322 310 373 q 200 67 310 212 l 473 67 q 601 157 561 67 l 634 156 l 564 0 l 77 0 l 78 33 q 204 317 204 195 q 181 414 204 369 q 160 456 170 436 l 51 456 l 51 497 l 143 497 q 103 668 103 594 q 187 904 103 822 q 395 986 271 986 l 398 986 q 523 976 448 986 q 598 953 598 967 l 598 844 l 559 844 q 507 913 556 885 "},"¹":{"x_min":0,"x_max":0,"ha":688},"t":{"x_min":61.046875,"x_max":706.03125,"ha":773,"o":"m 682 691 l 694 679 l 694 633 l 706 460 l 625 460 l 452 472 l 486 0 l 233 0 l 280 495 l 130 495 l 72 483 l 61 495 l 72 552 l 72 679 l 486 679 l 682 691 "},"¬":{"x_min":59,"x_max":628.71875,"ha":688,"o":"m 59 520 l 628 520 l 628 187 l 628 186 l 561 186 l 561 452 l 59 452 l 59 520 "},"ù":{"x_min":0,"x_max":0,"ha":718},"W":{"x_min":67.828125,"x_max":1099.40625,"ha":1166,"o":"m 323 972 l 451 422 l 460 422 q 608 707 588 707 l 696 520 l 716 520 l 873 952 l 1099 874 l 814 39 l 667 29 l 588 295 l 569 295 l 431 0 l 274 0 q 166 432 256 0 l 67 923 l 323 972 "},"ï":{"x_min":0,"x_max":0,"ha":349},">":{"x_min":59,"x_max":628.71875,"ha":688,"o":"m 59 841 l 628 513 l 628 457 l 59 130 l 59 244 l 482 484 l 59 728 l 59 841 "},"v":{"x_min":74.609375,"x_max":698.5625,"ha":767,"o":"m 242 695 l 314 695 l 314 672 l 362 288 q 482 695 434 288 l 698 695 q 386 0 562 0 l 362 0 q 146 432 146 143 l 74 672 l 242 695 "},"û":{"x_min":0,"x_max":0,"ha":718},"Ò":{"x_min":0,"x_max":0,"ha":1095},"&":{"x_min":67.828125,"x_max":428.640625,"ha":498,"o":"m 332 961 l 356 769 l 332 769 l 187 745 l 164 745 l 164 913 q 332 985 164 969 l 332 961 m 284 720 l 428 720 l 428 649 l 260 624 l 260 600 l 404 600 l 404 577 q 284 529 404 529 l 260 504 l 260 480 l 284 504 l 380 504 l 404 480 l 428 480 l 404 408 l 139 408 l 67 480 l 115 552 l 115 697 l 284 720 m 307 384 l 380 384 l 380 0 l 187 0 l 187 360 l 307 384 "},"˝":{"x_min":147.171875,"x_max":546.640625,"ha":695,"o":"m 147 731 l 244 916 q 275 959 261 946 q 307 972 290 972 q 339 959 326 972 q 353 927 353 945 q 346 903 353 916 q 325 875 339 890 l 186 731 l 147 731 m 340 731 l 438 916 q 468 959 454 946 q 500 972 483 972 q 533 959 519 972 q 546 927 546 945 q 539 903 546 916 q 518 875 532 890 l 379 731 l 340 731 "},"Ð":{"x_min":0,"x_max":0,"ha":1030},"I":{"x_min":67.828125,"x_max":435.421875,"ha":498,"o":"m 200 970 l 274 955 l 406 955 l 420 941 l 435 941 l 420 838 l 406 0 l 67 0 l 200 970 "},"ˉ":{"x_min":172.265625,"x_max":522.234375,"ha":695,"o":"m 172 810 l 172 895 l 522 895 l 522 810 l 172 810 "},"G":{"x_min":61.046875,"x_max":813.1875,"ha":882,"o":"m 367 975 l 465 961 l 604 961 l 813 779 l 632 654 l 534 737 l 408 737 q 297 376 379 737 l 423 250 l 632 250 l 659 362 l 646 362 l 437 347 l 437 362 l 465 585 q 798 515 798 546 l 798 208 l 813 111 l 311 0 l 61 292 q 200 822 114 822 l 367 975 "},"`":{"x_min":143.78125,"x_max":456.4375,"ha":695,"o":"m 456 731 l 409 731 l 185 868 q 154 895 164 882 q 143 924 143 909 q 157 959 143 945 q 193 972 171 972 q 221 964 207 972 q 259 932 235 956 l 456 731 "},"·":{"x_min":87.484375,"x_max":257.046875,"ha":345,"o":"m 98 501 l 153 558 q 173 568 164 568 q 194 557 182 568 l 248 499 q 257 479 257 488 q 247 458 257 469 l 193 398 q 173 385 179 385 q 153 394 162 385 l 94 463 q 87 480 87 472 q 98 501 87 491 "},"r":{"x_min":54.265625,"x_max":589.375,"ha":640,"o":"m 128 695 l 139 695 q 503 621 432 695 l 568 588 l 568 364 l 407 288 l 589 107 q 461 0 569 71 l 450 0 l 278 267 l 268 267 l 257 53 l 54 53 l 128 695 m 300 514 l 300 396 l 385 438 l 385 460 l 300 514 "},"₤":{"x_min":51.546875,"x_max":634.8125,"ha":688,"o":"m 507 913 q 398 934 458 934 l 397 934 q 268 866 329 934 q 211 702 211 803 q 212 682 211 692 q 234 537 212 610 l 492 537 l 492 497 l 248 497 q 265 456 256 476 l 504 456 l 504 415 l 286 415 q 310 322 310 373 q 200 67 310 212 l 473 67 q 601 157 561 67 l 634 156 l 564 0 l 77 0 l 78 33 q 204 317 204 195 q 181 414 204 369 l 180 415 l 63 415 l 63 456 l 160 456 q 143 497 151 477 l 51 497 l 51 537 l 128 537 q 103 668 103 610 q 187 904 103 822 q 398 986 271 986 q 523 976 448 986 q 598 953 598 967 l 598 844 l 559 844 q 507 913 556 885 "},"¿":{"x_min":0,"x_max":0,"ha":507},"ý":{"x_min":0,"x_max":0,"ha":589},"x":{"x_min":67.828125,"x_max":906.109375,"ha":971,"o":"m 583 699 l 805 529 l 805 520 l 652 391 l 906 202 l 685 0 q 486 211 611 86 l 288 32 l 284 32 l 67 198 l 321 400 l 321 405 q 141 552 311 405 l 284 691 l 459 548 l 583 699 "},"è":{"x_min":0,"x_max":0,"ha":617},"º":{"x_min":0,"x_max":0,"ha":487},"Ø":{"x_min":0,"x_max":0,"ha":1095},"∞":{"x_min":44.765625,"x_max":644.984375,"ha":688,"o":"m 297 512 q 247 602 287 581 q 190 617 216 617 q 174 615 182 617 q 112 585 141 609 q 67 528 82 562 q 54 467 54 497 l 54 461 q 72 401 55 429 q 121 362 90 373 q 162 354 141 354 q 185 356 173 354 q 246 386 217 363 q 297 512 276 408 m 316 465 q 379 362 324 400 q 463 329 426 329 q 477 330 470 329 q 557 366 519 339 q 614 434 594 393 q 632 507 632 471 l 632 515 q 608 589 630 556 q 545 635 585 621 q 494 644 520 644 q 464 641 479 644 q 378 599 419 635 q 316 465 337 563 m 305 560 q 319 607 311 584 q 383 700 342 667 q 470 733 425 733 q 557 701 516 733 q 621 609 598 668 q 644 486 644 550 q 621 362 644 421 q 557 271 598 303 q 470 238 516 238 q 383 271 425 238 q 319 364 342 305 q 305 411 311 387 q 297 383 301 397 q 246 307 278 334 q 179 280 215 280 q 111 307 144 280 q 62 384 79 335 q 44 486 44 434 q 62 587 44 537 q 111 664 79 636 q 179 692 144 692 q 246 665 215 692 q 297 589 278 638 q 305 560 301 575 "},"÷":{"x_min":59,"x_max":628.71875,"ha":688,"o":"m 59 438 l 59 533 l 628 533 l 628 533 l 628 438 l 59 438 m 269 276 l 325 333 q 345 343 335 343 q 366 332 354 343 l 420 274 q 428 254 428 263 q 419 233 428 244 l 364 173 q 345 160 351 160 q 325 169 334 160 l 265 238 q 259 255 259 246 q 269 276 259 265 m 269 746 l 325 803 q 345 813 335 813 q 366 802 354 813 l 420 744 q 428 724 428 733 q 419 703 428 714 l 364 643 q 345 630 351 630 q 325 639 334 630 l 265 708 q 259 725 259 716 q 269 746 259 735 "},"h":{"x_min":67.828125,"x_max":751.46875,"ha":813,"o":"m 378 695 l 378 670 l 366 410 l 378 410 l 490 397 l 502 397 l 502 658 l 751 658 l 663 0 l 651 12 l 502 12 l 490 25 l 478 25 l 490 37 l 490 210 q 403 111 403 180 l 403 12 l 278 0 l 204 0 l 67 633 l 378 695 "},".":{"x_min":62.390625,"x_max":227.203125,"ha":300,"o":"m 77 169 l 227 169 l 227 3 l 65 3 l 62 166 l 74 172 l 77 169 "},";":{"x_min":70.53125,"x_max":345.21875,"ha":422,"o":"m 143 638 l 293 638 l 293 472 l 131 472 l 128 635 l 140 641 l 143 638 m 125 145 l 345 145 q 198 -165 224 -165 l 70 -165 q 125 145 70 145 "},"f":{"x_min":67.828125,"x_max":575.8125,"ha":635,"o":"m 575 695 l 575 685 l 531 507 l 299 541 l 288 530 l 288 453 l 299 453 l 465 463 l 465 453 l 454 276 l 299 309 l 299 10 l 288 10 l 67 0 l 111 673 l 575 695 "},"“":{"x_min":59,"x_max":639.5625,"ha":706,"o":"m 59 1030 l 275 1030 q 328 725 328 1030 l 202 725 q 59 1030 177 725 m 369 1028 l 585 1028 q 639 722 639 1028 l 513 722 q 369 1028 488 722 "},"A":{"x_min":62.390625,"x_max":1129.234375,"ha":1181,"o":"m 539 971 l 715 955 l 747 955 q 1129 0 747 897 l 763 0 l 763 47 q 667 174 763 174 l 460 223 l 381 79 l 62 206 q 539 971 497 954 m 524 430 l 556 430 l 715 413 l 651 653 l 619 653 q 524 430 582 653 "},"6":{"x_min":86.140625,"x_max":750.796875,"ha":829,"o":"m 255 970 l 655 959 q 750 685 750 750 l 518 653 l 518 664 l 486 717 l 423 717 q 381 590 405 717 q 644 506 644 550 l 739 400 l 739 147 l 571 0 l 318 21 l 307 10 q 118 137 189 10 l 86 168 l 86 569 q 255 970 209 930 m 349 358 l 360 284 l 360 231 l 370 231 l 465 242 l 465 252 l 455 358 l 349 358 "},"‘":{"x_min":69.171875,"x_max":339.109375,"ha":406,"o":"m 69 1030 l 285 1030 q 339 725 339 1030 l 212 725 q 69 1030 187 725 "},"O":{"x_min":61.046875,"x_max":1031.578125,"ha":1095,"o":"m 441 970 l 765 970 l 1031 704 q 917 190 950 190 q 384 0 453 0 l 61 323 q 193 837 61 837 q 441 970 371 970 m 441 552 l 460 380 l 460 361 l 632 361 q 727 533 674 361 l 594 666 l 441 552 "},"n":{"x_min":61.046875,"x_max":657.875,"ha":732,"o":"m 92 691 l 241 691 q 461 329 368 509 l 469 329 l 469 337 l 461 565 l 461 581 l 453 620 l 563 667 l 563 659 l 657 164 l 461 15 l 453 15 q 343 282 387 282 l 233 400 l 233 0 l 61 0 l 92 691 "},"3":{"x_min":63.078125,"x_max":799.625,"ha":869,"o":"m 292 965 q 594 893 594 921 l 727 663 l 570 507 q 739 446 739 486 l 799 253 l 606 12 l 606 0 l 231 0 l 63 205 l 183 349 q 352 205 223 205 q 461 168 352 185 l 497 156 l 497 168 l 545 349 l 280 398 q 389 567 280 567 l 437 579 q 497 603 437 603 l 497 615 l 413 772 q 183 651 381 772 l 75 784 l 292 965 "},"9":{"x_min":65.78125,"x_max":817.9375,"ha":885,"o":"m 287 973 l 657 973 q 817 776 657 943 l 682 0 l 423 0 l 558 443 q 139 518 160 443 l 65 727 l 287 973 m 374 813 l 324 604 l 337 604 l 583 567 l 644 739 l 632 739 l 374 813 "},"l":{"x_min":67.828125,"x_max":524.9375,"ha":594,"o":"m 112 702 l 335 691 l 335 680 l 223 200 l 279 189 l 524 189 l 524 178 l 469 0 l 391 10 l 67 10 l 112 702 "},"¤":{"x_min":82.75,"x_max":604.296875,"ha":688,"o":"m 237 379 q 304 341 265 352 q 343 335 324 335 q 383 341 363 335 q 450 379 422 352 q 489 446 477 407 q 495 486 495 466 q 489 525 495 505 q 450 592 477 564 q 382 631 422 619 q 343 636 362 636 q 303 630 323 636 q 237 592 264 619 q 199 526 210 565 q 192 485 192 505 q 198 447 192 466 q 237 379 209 407 m 162 612 l 82 692 l 137 747 l 217 667 q 284 698 246 687 q 344 708 314 708 q 400 699 372 708 q 470 667 439 688 l 550 747 l 604 692 l 524 613 q 557 543 545 581 q 565 486 565 515 q 557 428 565 457 q 524 359 545 390 l 604 280 l 550 225 l 470 305 q 401 272 439 283 q 343 264 373 264 q 286 272 315 264 q 217 305 247 283 l 137 225 l 82 280 l 162 359 q 130 429 141 390 q 122 486 122 457 q 130 545 122 516 q 162 612 141 582 "},"":{"x_min":0,"x_max":0,"ha":728},"∂":{"x_min":52.21875,"x_max":635.5,"ha":688,"o":"m 157 364 q 160 310 157 336 q 202 154 170 227 q 282 42 234 81 q 369 6 326 6 q 378 7 373 6 q 464 55 425 10 q 519 177 503 99 q 530 278 530 226 q 526 335 530 306 q 484 492 517 418 q 403 604 451 567 q 316 638 359 638 l 309 638 q 223 591 263 635 q 168 470 184 548 q 157 364 157 413 m 635 323 q 597 153 635 233 q 489 27 558 72 q 343 -16 419 -16 q 198 27 267 -16 q 90 153 128 72 q 52 323 52 233 q 91 493 52 412 q 200 619 130 575 q 343 663 270 663 q 487 619 417 663 q 524 591 507 607 q 365 847 467 750 q 144 952 264 943 l 144 989 q 493 796 352 989 q 635 323 635 602 "},"4":{"x_min":56.296875,"x_max":970.53125,"ha":1040,"o":"m 689 972 l 748 375 l 759 375 l 959 386 l 970 375 l 935 140 l 876 140 l 759 152 l 771 35 l 771 0 l 583 0 l 583 175 q 103 234 103 210 l 56 375 q 360 961 80 386 l 373 972 l 689 972 m 290 421 l 442 421 l 442 445 l 431 621 l 290 421 "},"p":{"x_min":67.828125,"x_max":528.328125,"ha":600,"o":"m 78 695 l 271 695 l 528 599 l 528 364 q 378 224 404 224 l 260 224 l 260 0 l 67 0 l 78 535 l 78 695 m 282 492 l 271 417 l 271 364 q 367 492 288 364 l 282 492 "},"‡":{"x_min":47.46875,"x_max":639.5625,"ha":688,"o":"m 358 126 q 479 164 421 133 q 571 202 550 202 q 620 176 602 202 q 639 112 639 151 q 619 47 639 71 q 565 23 598 23 q 478 61 546 23 q 358 98 423 92 q 395 -23 364 34 q 432 -115 432 -94 q 407 -164 432 -145 q 343 -183 381 -183 q 278 -163 302 -183 q 253 -109 253 -143 q 292 -22 253 -90 q 328 98 323 32 q 207 61 265 92 q 114 23 136 23 q 66 48 84 23 q 47 112 47 73 q 67 177 47 153 q 120 202 87 202 q 208 163 139 202 q 328 126 263 132 q 253 396 322 279 q 328 665 322 512 q 208 628 263 658 q 120 589 139 589 q 67 613 87 589 q 47 678 47 638 q 66 742 47 717 q 114 768 84 768 q 207 730 136 768 q 328 693 265 699 q 292 813 323 758 q 253 901 253 882 q 278 954 253 934 q 343 974 302 974 q 407 955 381 974 q 432 907 432 937 q 395 814 432 885 q 358 693 364 756 q 478 729 423 698 q 565 768 546 768 q 619 744 598 768 q 639 678 639 719 q 620 614 639 640 q 571 589 602 589 q 479 626 550 589 q 358 665 421 657 q 432 396 363 512 q 358 126 363 279 "},"à":{"x_min":0,"x_max":0,"ha":625},"Ü":{"x_min":0,"x_max":0,"ha":1018},"ó":{"x_min":0,"x_max":0,"ha":685},"√":{"x_min":11.53125,"x_max":714.84375,"ha":688,"o":"m 122 0 l 11 243 l 61 267 l 119 141 l 613 1138 l 714 1138 l 714 1098 l 666 1098 l 122 0 "}}}
